<?xml version="1.0" standalone="no"?>
<!DOCTYPE svg PUBLIC "-//W3C//DTD SVG 20010904//EN"
 "http://www.w3.org/TR/2001/REC-SVG-20010904/DTD/svg10.dtd">
<svg version="1.0" xmlns="http://www.w3.org/2000/svg"
 width="512.000000pt" height="512.000000pt" viewBox="0 0 512.000000 512.000000"
 preserveAspectRatio="xMidYMid meet">
<metadata>
Created by potrace 1.16, written by Peter Selinger 2001-2019
</metadata>
<g transform="translate(0.000000,512.000000) scale(0.100000,-0.100000)"
fill="#000000" stroke="none">
<path d="M2431 5104 c-111 -39 -298 -173 -461 -331 l-126 -121 -44 8 c-71 14
-238 11 -315 -5 -194 -41 -376 -155 -491 -308 -59 -78 -106 -172 -135 -267
-20 -68 -31 -84 -108 -168 -79 -86 -94 -97 -191 -145 -92 -44 -116 -62 -195
-141 -92 -92 -155 -189 -155 -238 0 -57 67 -95 114 -64 13 8 39 41 57 73 54
95 143 175 256 229 54 25 119 64 145 85 l47 39 11 -58 c23 -115 73 -236 133
-322 l24 -34 -47 -61 c-195 -248 -339 -577 -395 -898 -37 -207 -37 -474 -2
-679 l13 -77 -37 30 c-85 67 -162 208 -179 329 -21 148 -38 199 -94 289 -78
124 -99 191 -99 321 0 121 19 192 84 300 70 118 87 250 36 285 -58 40 -127 0
-127 -74 0 -25 -19 -75 -59 -155 -71 -140 -91 -219 -91 -358 0 -160 38 -278
135 -429 31 -47 38 -71 50 -157 18 -124 45 -207 96 -294 69 -117 172 -215 285
-272 49 -24 51 -28 83 -113 68 -180 180 -382 300 -538 64 -84 242 -266 331
-338 284 -229 635 -381 999 -431 145 -21 417 -21 562 0 364 50 715 202 999
431 89 72 267 254 331 338 120 156 232 358 299 537 32 85 35 89 84 114 117 61
217 156 285 272 51 87 78 170 96 294 12 86 19 110 50 157 97 151 135 269 135
429 0 139 -20 221 -87 350 -52 101 -56 113 -64 204 -10 128 -30 205 -81 308
-34 69 -58 102 -132 176 -80 79 -104 96 -197 141 -69 34 -118 65 -140 89 -19
21 -57 63 -85 93 -41 45 -55 70 -74 131 -78 262 -277 466 -540 551 -78 26
-117 32 -215 36 -66 3 -145 1 -175 -5 l-55 -10 -115 112 c-167 162 -354 298
-465 337 -68 24 -200 25 -264 3z m262 -177 c101 -57 228 -152 327 -245 l93
-88 -69 -39 c-145 -84 -294 -259 -352 -412 l-27 -73 -105 0 -105 0 -27 73
c-58 153 -207 328 -351 411 l-68 39 48 50 c109 111 340 279 431 314 58 21 132
10 205 -30z m967 -444 c207 -56 396 -253 456 -473 21 -80 24 -243 5 -320 -14
-57 -60 -167 -87 -208 l-15 -23 -72 66 c-200 184 -458 341 -699 425 -79 28
-83 30 -79 57 5 47 50 154 92 226 51 85 143 181 228 235 68 45 64 44 171 15z
m-832 -589 c314 -46 607 -167 857 -351 50 -37 144 -121 210 -187 124 -125 202
-225 285 -368 59 -102 82 -128 113 -128 39 0 77 36 77 74 0 39 -93 199 -186
322 l-60 79 29 45 c64 98 100 192 132 343 l6 28 41 -35 c22 -19 88 -58 145
-86 82 -39 119 -64 167 -113 110 -110 152 -207 166 -382 11 -126 22 -165 74
-250 56 -92 81 -182 81 -295 0 -122 -27 -210 -96 -316 -63 -96 -76 -133 -89
-245 -13 -111 -47 -203 -105 -285 -38 -52 -114 -129 -121 -121 -1 1 5 34 12
72 21 100 29 436 15 565 -24 204 -77 409 -114 435 -32 22 -70 19 -96 -9 -27
-29 -26 -43 12 -191 47 -181 60 -308 54 -520 -4 -132 -12 -220 -26 -290 -122
-595 -502 -1089 -1035 -1346 -521 -251 -1117 -249 -1641 6 -710 344 -1131
1108 -1044 1893 93 847 746 1525 1594 1656 126 20 412 20 543 0z"/>
<path d="M1775 3389 c-30 -17 -45 -40 -45 -70 0 -37 29 -70 90 -103 42 -23 65
-28 115 -28 50 0 73 5 115 28 78 42 104 86 84 139 -6 15 -53 45 -72 45 -5 0
-29 -13 -53 -30 -54 -37 -97 -39 -136 -6 -36 30 -72 39 -98 25z"/>
<path d="M3025 3388 c-110 -60 5 -201 164 -201 134 0 246 111 181 181 -32 34
-67 33 -121 -4 -44 -30 -83 -30 -128 0 -47 31 -72 38 -96 24z"/>
<path d="M2285 3356 c-66 -29 -111 -111 -100 -182 7 -51 53 -122 100 -159 187
-142 496 -106 614 71 51 78 49 159 -6 225 -51 60 -123 72 -260 44 -65 -14 -81
-14 -145 0 -89 18 -163 19 -203 1z"/>
<path d="M1958 2546 c-20 -7 -54 -27 -75 -44 -68 -54 -410 -406 -427 -439 -91
-179 82 -382 271 -319 43 14 78 45 280 249 208 210 231 237 243 281 11 39 11
61 2 105 -15 70 -53 118 -122 154 -59 30 -113 34 -172 13z m106 -147 c32 -15
50 -57 37 -90 -12 -32 -400 -415 -429 -424 -44 -13 -98 42 -87 88 8 30 415
437 438 437 9 0 27 -5 41 -11z"/>
<path d="M3030 2499 c-65 -29 -1350 -1312 -1385 -1383 -47 -94 -27 -196 53
-268 69 -62 182 -75 255 -29 18 11 334 323 704 693 613 614 672 677 683 718
14 52 8 126 -14 167 -54 106 -187 151 -296 102z m145 -154 c55 -54 79 -25
-622 -728 -357 -357 -661 -655 -677 -663 -52 -28 -117 22 -103 78 4 13 302
319 664 681 713 712 684 687 738 632z"/>
<path d="M3750 2014 c-122 -53 -173 -209 -104 -321 39 -63 107 -105 179 -111
45 -4 65 0 111 23 177 86 169 335 -13 412 -43 17 -129 16 -173 -3z m140 -154
c30 -30 27 -83 -6 -109 -15 -12 -34 -21 -44 -21 -10 0 -29 9 -44 21 -52 41
-23 129 44 129 17 0 39 -9 50 -20z"/>
<path d="M3310 1568 c-47 -15 -624 -585 -651 -643 -23 -50 -25 -145 -3 -190
57 -121 206 -168 318 -101 60 36 589 572 615 623 49 98 11 229 -83 287 -54 34
-135 43 -196 24z m125 -163 c53 -52 50 -55 -264 -369 -271 -271 -291 -288
-318 -282 -37 9 -63 41 -63 79 0 27 33 64 263 295 144 145 276 273 292 283 40
25 61 24 90 -6z"/>
</g>
</svg>
