<?xml version="1.0" encoding="UTF-8" standalone="no"?>
<!-- Created with Inkscape (http://www.inkscape.org/) -->

<svg
   width="69.196861mm"
   height="46.902931mm"
   viewBox="0 0 69.196863 46.902931"
   version="1.1"
   id="svg1"
   xml:space="preserve"
   inkscape:version="1.4.2 (f4327f4, 2025-05-13)"
   sodipodi:docname="ascendev-logo-azul-y-negro-solo-letras.svg"
   xmlns:inkscape="http://www.inkscape.org/namespaces/inkscape"
   xmlns:sodipodi="http://sodipodi.sourceforge.net/DTD/sodipodi-0.dtd"
   xmlns:xlink="http://www.w3.org/1999/xlink"
   xmlns="http://www.w3.org/2000/svg"
   xmlns:svg="http://www.w3.org/2000/svg"><sodipodi:namedview
     id="namedview1"
     pagecolor="#505050"
     bordercolor="#ffffff"
     borderopacity="1"
     inkscape:showpageshadow="0"
     inkscape:pageopacity="0"
     inkscape:pagecheckerboard="1"
     inkscape:deskcolor="#505050"
     inkscape:document-units="mm"
     inkscape:zoom="1.0565516"
     inkscape:cx="299.08619"
     inkscape:cy="27.921021"
     inkscape:window-width="1440"
     inkscape:window-height="837"
     inkscape:window-x="-8"
     inkscape:window-y="-8"
     inkscape:window-maximized="1"
     inkscape:current-layer="layer1"
     showgrid="false" /><defs
     id="defs1"><linearGradient
       id="linearGradient13"
       inkscape:collect="always"><stop
         style="stop-color:#008080;stop-opacity:1;"
         offset="0"
         id="stop13" /><stop
         style="stop-color:#00d4d4;stop-opacity:1;"
         offset="0.55059522"
         id="stop14" /></linearGradient><linearGradient
       id="swatch12"><stop
         style="stop-color:#ffffff;stop-opacity:1;"
         offset="0"
         id="stop12" /></linearGradient><linearGradient
       inkscape:collect="always"
       xlink:href="#linearGradient13"
       id="linearGradient14"
       x1="5.9526081"
       y1="147.89088"
       x2="197.37215"
       y2="147.89088"
       gradientUnits="userSpaceOnUse" /></defs><g
     inkscape:label="Capa 1"
     inkscape:groupmode="layer"
     id="layer1"
     style="display:inline;fill:#000000"
     transform="translate(-5.9526082,-124.43943)"><path
       id="path1"
       style="fill:#000000;fill-opacity:1"
       d="m 53.842708,126.02951 -6.927742,0.0811 -6.927743,0.0806 3.194637,5.29218 3.195154,5.29115 0.293005,0.19482 0.293523,0.19431 3.742407,0.004 3.742407,0.004 1.681551,0.52245 1.681551,0.52296 1.362191,0.92139 1.362708,0.92191 0.920874,1.13533 0.920874,1.13533 0.562239,1.11673 0.56224,1.11621 0.395324,1.51877 0.395842,1.51877 -0.0041,1.46606 -0.0036,1.46555 -0.391707,1.66191 -0.392224,1.66243 -0.558105,1.09451 -0.558623,1.09451 -1.280542,1.24747 -1.280542,1.24695 2.914034,4.66121 2.914551,4.6607 0.558622,-0.29921 0.558623,-0.29869 1.903243,-1.90324 1.903243,-1.90324 1.230415,-2.09703 1.230416,-2.09703 0.791166,-2.46083 0.79065,-2.46135 0.2651,-2.55695 0.2651,-2.55695 -0.268201,-2.61638 -0.268717,-2.61689 -0.410311,-1.62575 -0.410828,-1.62574 -1.176672,-2.38125 -1.177189,-2.38125 -1.558561,-1.87482 -1.558045,-1.87533 -1.814876,-1.36375 -1.815393,-1.36374 -1.852083,-0.90898 -1.852084,-0.90848 -1.62419,-0.52503 -1.624707,-0.52451 -1.947168,-0.30335 z" /></g><g
     inkscape:groupmode="layer"
     id="layer2"
     inkscape:label="Capa 2"
     transform="translate(-5.9526082,-124.43943)"><path
       id="path1-5"
       style="display:inline;opacity:1;fill:url(#linearGradient14);fill-opacity:1"
       d="m 34.747233,124.43943 -0.331763,0.36484 -0.331762,0.36431 -2.206584,3.70417 -2.206584,3.70417 -2.777091,4.49791 -2.777092,4.49792 -3.086633,5.02708 -3.086116,5.02709 -5.9955,9.73739 -5.9954998,9.73739 v 0.11834 0.11885 h 6.2848878 6.284371 l 1.038696,-1.65364 1.038696,-1.65365 6.586162,-10.84792 6.586161,-10.84791 0.353984,-0.3638 0.3545,-0.36329 0.644922,1.02474 0.644922,1.02526 3.434932,5.55625 3.434933,5.55625 0.595829,0.99219 0.595829,0.99219 -4.982642,0.002 -4.982641,0.002 -3.117639,5.19245 -3.118156,5.19245 0.09922,0.0992 0.09922,0.0987 17.653703,-0.0677 17.653703,-0.0682 -5.869926,-9.525 -5.870443,-9.525 -2.522326,-4.10104 -2.52181,-4.10104 -5.232756,-8.64082 -5.232755,-8.64133 -0.569475,-1.11621 z" /></g></svg>
