<?xml version="1.0" encoding="UTF-8"?>
<svg version="1.1" xmlns="http://www.w3.org/2000/svg" width="800" height="800">
<path d="M0 0 C16.38115978 -0.43566914 30.08359041 1.90206625 42.25 13.421875 C42.75063965 13.90011719 43.2512793 14.37835938 43.76708984 14.87109375 C65.04353375 35.13047312 97.86757354 49.37378078 126.8125 53.046875 C128.00447998 53.20671875 129.19645996 53.3665625 130.42456055 53.53125 C138.55826039 54.59008081 146.70526139 55.48266089 154.86328125 56.33203125 C155.8714389 56.43789047 156.87959656 56.54374969 157.91830444 56.65281677 C162.95054495 57.18002172 167.9834733 57.69392589 173.01953125 58.18334961 C186.85357663 59.57162296 201.12298747 61.09153599 213.5625 67.796875 C214.22612549 68.14661377 214.88975098 68.49635254 215.57348633 68.85668945 C224.1758646 73.51635425 231.31133586 78.85300588 237.9140625 86.0703125 C249.42228859 98.52755714 258.44556329 104.94226667 274.79980469 109.35302734 C282.62164807 111.70748428 289.97923124 115.88564929 295.3125 122.109375 C296.59790663 126.62825794 295.69836033 130.96542306 293.5 135.046875 C291.3125 138.109375 291.3125 138.109375 288.3125 140.109375 C279.04537654 141.64453712 270.29326571 137.906476 261.65234375 135.04101562 C250.64532976 131.55021976 239.73841008 130.32194245 228.25 131.734375 C227.11050903 131.87141846 227.11050903 131.87141846 225.94799805 132.01123047 C215.90283792 133.38617699 207.28460626 137.4748502 198.375 142.109375 C197.75987549 142.42922363 197.14475098 142.74907227 196.51098633 143.07861328 C192.30445855 145.35616812 188.80259899 147.8697106 185.3125 151.109375 C185.3125 151.769375 185.3125 152.429375 185.3125 153.109375 C186.69495094 154.34644515 186.69495094 154.34644515 188.5390625 155.54296875 C189.23410889 156.02121094 189.92915527 156.49945313 190.64526367 156.9921875 C191.40170166 157.50523437 192.15813965 158.01828125 192.9375 158.546875 C217.66771814 175.67156458 242.02767982 195.91444365 261.3125 219.109375 C261.75787109 219.64095215 262.20324219 220.1725293 262.66210938 220.72021484 C269.74594811 229.19928572 276.46126882 237.8701224 282.82275391 246.90576172 C286.0975091 251.53595148 289.56081229 255.85448029 293.3125 260.109375 C298.23444461 256.43564689 301.0535988 252.87384542 303.9375 247.484375 C304.51769897 246.42150269 304.51769897 246.42150269 305.10961914 245.3371582 C317.38122223 222.39844008 315.3204612 200.14691136 308.125 175.984375 C307.85091309 175.1078125 307.57682617 174.23125 307.29443359 173.328125 C305.81023752 168.46497465 304.79197408 164.25607504 305.3125 159.109375 C308.05717229 154.95315696 310.40534688 152.27774479 315.3125 151.109375 C319.91066609 150.78093457 323.19024329 151.04824664 327.3125 153.109375 C333.23188545 159.63854638 335.73307344 169.16167761 338.6015625 177.328125 C339.02973267 178.50616699 339.02973267 178.50616699 339.46655273 179.70800781 C340.02807264 181.30197889 340.54655458 182.91180166 341.01977539 184.53417969 C343.46115594 192.01762233 348.29652004 196.64727826 353.931427 201.89282227 C375.70938721 222.25434011 384.02908005 243.46431178 387.07641602 272.95172119 C387.31907091 275.29790796 387.57160725 277.64287034 387.82617188 279.98779297 C388.61985612 287.33720828 389.37452655 294.68981846 390.09375 302.046875 C391.91796915 324.1355904 391.91796915 324.1355904 398.5703125 345.09765625 C404.71230608 358.56530714 406.28517851 370.38692032 406.4375 385.046875 C406.46034058 385.9140213 406.48318115 386.7811676 406.50671387 387.67459106 C406.91050144 406.67846218 399.33384161 420.59486051 386.3046875 434.20703125 C374.08362468 445.90948808 358.77918202 451.55055018 342.3125 454.109375 C342.34186646 455.04595947 342.34186646 455.04595947 342.37182617 456.00146484 C342.50926227 464.02511514 341.6835231 471.78850085 340.625 479.734375 C340.53569214 480.40956177 340.44638428 481.08474854 340.35437012 481.78039551 C331.80371676 545.93476918 306.14425082 612.65109507 260.98046875 660.265625 C258.97181318 662.40662244 257.04983879 664.56672373 255.140625 666.79296875 C250.62079235 671.98528973 245.75108651 676.81658203 240.875 681.671875 C239.97201172 682.57873047 239.06902344 683.48558594 238.13867188 684.41992188 C233.02551299 689.52567575 227.81980822 694.43251555 222.3125 699.109375 C221.38566406 699.91761719 220.45882812 700.72585938 219.50390625 701.55859375 C205.78841844 713.23611904 190.82817181 723.00603413 175.3125 732.109375 C174.60577148 732.52928711 173.89904297 732.94919922 173.17089844 733.38183594 C122.06547695 763.59228584 64.565605 776.36380192 5.75 776.296875 C4.68535522 776.29593842 3.62071045 776.29500183 2.52380371 776.29403687 C-27.82624944 776.23613869 -27.82624944 776.23613869 -42.6875 774.109375 C-44.27473877 773.88338623 -44.27473877 773.88338623 -45.89404297 773.65283203 C-104.88375093 764.87143835 -160.0924446 740.14982635 -206.6875 703.109375 C-207.4196875 702.54476562 -208.151875 701.98015625 -208.90625 701.3984375 C-214.03406873 697.29183691 -217.24351029 693.27280168 -218.1875 686.546875 C-217.39205255 681.07817378 -215.03414012 678.24653776 -210.875 674.734375 C-207.04358732 672.78110579 -204.95365488 672.72605242 -200.6875 673.109375 C-197.57421875 674.62109375 -197.57421875 674.62109375 -194.375 676.796875 C-193.48385498 677.39375122 -193.48385498 677.39375122 -192.57470703 678.00268555 C-188.40714021 680.82589326 -184.35424435 683.80379725 -180.29736328 686.78271484 C-140.83803754 715.72415171 -95.21372801 735.50441719 -47.125 744.421875 C-46.3309375 744.56915039 -45.536875 744.71642578 -44.71875 744.86816406 C-28.35275411 747.69972008 -12.20700277 748.48398797 4.375 748.421875 C5.93028915 748.41864227 5.93028915 748.41864227 7.51699829 748.41534424 C22.97716945 748.36381182 38.07570675 747.96098941 53.3125 745.109375 C54.39837402 744.91069824 55.48424805 744.71202148 56.60302734 744.50732422 C109.15213777 734.63912019 158.03051107 713.374058 199.3125 679.109375 C199.80572754 678.70106445 200.29895508 678.29275391 200.80712891 677.87207031 C215.18129371 665.94297261 229.3661722 653.57950758 241.04296875 638.9375 C243.34653323 636.06696526 245.73079548 633.27952286 248.125 630.484375 C282.7385697 588.8089951 302.71907808 536.16152101 311.3125 483.109375 C311.50158936 481.95638916 311.69067871 480.80340332 311.88549805 479.61547852 C313.66351266 467.3673734 313.66698204 455.15443152 313.625 442.796875 C313.62317719 441.68821075 313.62135437 440.57954651 313.61947632 439.43728638 C313.57343035 422.81379235 313.10839309 406.53249507 310.3125 390.109375 C310.14621094 389.0884375 309.97992187 388.0675 309.80859375 387.015625 C301.59371412 337.84804911 280.23268828 290.16055221 249.3125 251.109375 C248.14267578 249.62050781 248.14267578 249.62050781 246.94921875 248.1015625 C242.20350855 242.18417606 237.1663576 236.57487775 232.00390625 231.0234375 C229.54221743 228.35809663 227.14320225 225.64852165 224.75 222.921875 C220.25416882 217.92562445 215.38890595 213.50558551 210.3125 209.109375 C209.27413871 208.18557078 208.23640759 207.26105788 207.19921875 206.3359375 C155.62711563 160.74243993 86.97913485 133.62049445 18.25 131.484375 C17.19995285 131.45168518 17.19995285 131.45168518 16.12869263 131.41833496 C-57.62067963 129.23031734 -130.17032411 152.29130439 -187.6875 199.109375 C-188.45852051 199.73610107 -188.45852051 199.73610107 -189.24511719 200.37548828 C-207.74216033 215.49446492 -224.27934951 232.05259628 -238.6875 251.109375 C-239.13448242 251.69412598 -239.58146484 252.27887695 -240.04199219 252.88134766 C-273.3614923 296.57571011 -295.69526372 349.33186153 -301.6875 404.109375 C-301.7810376 404.95975342 -301.8745752 405.81013184 -301.97094727 406.6862793 C-304.64022423 435.45248369 -305.22076357 466.88194868 -298.6875 495.109375 C-298.35008789 496.66084229 -298.35008789 496.66084229 -298.00585938 498.24365234 C-296.40657052 505.58033488 -294.61926599 512.85353365 -292.6875 520.109375 C-292.45836914 520.97723633 -292.22923828 521.84509766 -291.99316406 522.73925781 C-281.113738 563.20945954 -261.18251201 600.70121846 -235.42602539 633.5715332 C-226.21616026 645.34267064 -226.21616026 645.34267064 -225.1875 652.671875 C-225.80251948 656.90013391 -226.96302112 659.81623542 -229.6875 663.109375 C-233.03140528 665.59786265 -235.83388295 666.38832468 -239.9375 666.359375 C-252.39550178 664.26576738 -261.89925815 647.61538268 -268.6875 638.109375 C-301.62107102 590.67103617 -322.82768766 537.41080555 -330.0625 480.046875 C-330.1481723 479.37600861 -330.2338446 478.70514221 -330.32211304 478.01394653 C-331.32688571 470.01210298 -331.93244633 462.1748088 -331.6875 454.109375 C-332.70759155 453.97184814 -332.70759155 453.97184814 -333.74829102 453.83154297 C-353.6721635 450.99581615 -370.98526683 441.16974811 -383.4375 425.359375 C-392.21807941 413.2160205 -394.92232805 402.79005046 -395.03759766 388.16015625 C-395.0539684 386.64762788 -395.08100042 385.13517052 -395.11962891 383.62304688 C-395.4104557 372.14171086 -393.61257781 362.87192356 -389.6875 352.109375 C-389.1116996 350.34459994 -388.54492757 348.57682054 -387.9921875 346.8046875 C-387.75113281 346.03511719 -387.51007813 345.26554687 -387.26171875 344.47265625 C-386.91560547 343.36470703 -386.91560547 343.36470703 -386.5625 342.234375 C-386.20478516 341.13802734 -386.20478516 341.13802734 -385.83984375 340.01953125 C-380.50261137 322.73843831 -379.57140722 304.23887229 -377.88525391 286.33813477 C-375.31531725 259.25447863 -372.33658626 233.36412202 -353.6875 212.109375 C-353.13449219 211.42488281 -352.58148438 210.74039063 -352.01171875 210.03515625 C-348.70093413 206.01322458 -345.20514077 202.90097189 -341.0625 199.734375 C-334.27184245 194.24818982 -331.90526344 188.79155721 -329.19140625 180.66015625 C-323.23687433 162.82119508 -315.57045657 147.91397388 -302.6875 134.109375 C-302.09582031 133.43777344 -301.50414062 132.76617187 -300.89453125 132.07421875 C-289.18194886 119.37835784 -272.33813889 111.86402793 -256.25 106.546875 C-245.76742392 103.01494661 -239.79089682 98.25091962 -232.08618164 90.4152832 C-231.05352173 89.36667114 -231.05352173 89.36667114 -230 88.296875 C-228.9644397 87.24342896 -228.9644397 87.24342896 -227.90795898 86.16870117 C-204.63254112 62.81735278 -176.98488337 59.43991828 -145.57293701 56.41946411 C-142.15052854 56.08982271 -138.72878899 55.75341986 -135.3069458 55.41796875 C-132.82828586 55.17940964 -130.34866943 54.95440484 -127.86865234 54.73046875 C-111.3278842 53.17098251 -95.86016042 50.02741248 -80.6875 43.109375 C-79.74922363 42.68591797 -78.81094727 42.26246094 -77.84423828 41.82617188 C-61.32887866 34.31378868 -46.63398251 26.55955399 -33.125 14.421875 C-23.12615661 5.4466482 -13.52329368 0.5503666 0 0 Z M-11.6875 35.109375 C-12.82446663 36.20201036 -13.97040047 37.2853894 -15.125 38.359375 C-19.15211705 42.45872733 -22.7054083 46.92344983 -26.30224609 51.39892578 C-28.43199019 54.028638 -30.59493832 56.63063948 -32.75366211 59.23657227 C-39.01513876 66.80122033 -45.16801338 74.4373948 -51.19238281 82.19189453 C-52.888594 84.36727707 -54.59644746 86.5332706 -56.3046875 88.69921875 C-57.55744391 90.29415126 -58.81004964 91.88920214 -60.0625 93.484375 C-60.64580078 94.22163818 -61.22910156 94.95890137 -61.83007812 95.71850586 C-65.44500639 100.33879696 -68.6875944 105.06755974 -71.6875 110.109375 C-62.19331943 109.55966909 -52.90246358 108.54074838 -43.5 107.109375 C-41.13192928 106.75241841 -38.76344206 106.39821318 -36.39453125 106.046875 C-35.3681958 105.89089844 -34.34186035 105.73492187 -33.28442383 105.57421875 C-24.95013717 104.49714811 -16.67450393 103.94255916 -8.2734375 103.87109375 C-7.31223495 103.86148117 -6.35103241 103.85186859 -5.36070251 103.84196472 C-2.26126498 103.81736168 0.83797626 103.80471016 3.9375 103.796875 C5.52771469 103.79195038 5.52771469 103.79195038 7.15005493 103.78692627 C25.83996916 103.76826505 43.86006962 105.16050877 62.3125 108.109375 C64.68718887 108.48634024 67.06218021 108.86140594 69.4375 109.234375 C70.46488281 109.399375 71.49226562 109.564375 72.55078125 109.734375 C75.86391725 110.18424919 78.97758941 110.26448712 82.3125 110.109375 C79.54157699 104.98021964 76.45075815 100.54039537 72.75 96.046875 C71.67255317 94.72055869 70.59574378 93.39372431 69.51953125 92.06640625 C68.98021973 91.40334473 68.4409082 90.7402832 67.88525391 90.05712891 C65.53317389 87.14423007 63.23720836 84.18864526 60.9375 81.234375 C48.94684356 65.90313611 36.62100319 50.50235049 23.32421875 36.27734375 C21.3125 34.109375 21.3125 34.109375 19.83203125 32.16015625 C16.9903266 28.89181498 14.38215353 27.98302733 10.15625 27.50390625 C0.74258674 26.89673084 -5.54311006 27.3984698 -11.6875 35.109375 Z M94.3125 76.109375 C96.97982726 81.00463223 99.87461648 85.34228784 103.375 89.671875 C104.35568447 90.90086957 105.33614694 92.1300413 106.31640625 93.359375 C106.81414551 93.98070313 107.31188477 94.60203125 107.82470703 95.2421875 C109.72081057 97.62180678 111.58681333 100.02405326 113.45288086 102.42724609 C115.26684756 104.7548823 117.09977366 107.06707181 118.9375 109.37597656 C119.85924712 110.53798021 120.77587517 111.70406174 121.6875 112.87402344 C127.70089016 120.56586695 133.56827856 126.47866626 142.3125 131.109375 C143.36308594 131.69847656 144.41367187 132.28757813 145.49609375 132.89453125 C150.90802595 136.08820675 150.90802595 136.08820675 156.9375 136.95703125 C159.57418909 136.0159761 160.93295778 134.98518785 162.9375 133.046875 C178.37703642 119.00574391 196.73470156 110.7303102 216.3125 104.109375 C212.81273988 100.36892506 209.35451543 97.63633742 204.9375 95.046875 C203.85726562 94.39589844 202.77703125 93.74492188 201.6640625 93.07421875 C191.31569486 87.8791818 179.1650218 86.39828521 167.8125 85.109375 C166.45459291 84.94669731 165.09676624 84.78334713 163.73901367 84.61938477 C155.84168808 83.67961239 147.93368284 82.85820377 140.01953125 82.07421875 C139.15379486 81.98790192 138.28805847 81.90158508 137.39608765 81.81265259 C133.16494215 81.3920713 128.93328341 80.98192174 124.69921875 80.59179688 C116.58450627 79.82012981 108.81510099 78.77274245 100.90307617 76.69750977 C98.10512699 75.96177855 98.10512699 75.96177855 94.3125 76.109375 Z M-91.95825195 77.27758789 C-107.92447638 80.18240008 -124.02077022 81.70615059 -140.16259766 83.27026367 C-173.71562437 86.54929396 -173.71562437 86.54929396 -203.6875 101.109375 C-204.3475 102.099375 -205.0075 103.089375 -205.6875 104.109375 C-205.12466309 104.31506104 -204.56182617 104.52074707 -203.98193359 104.73266602 C-165.62211446 118.83128713 -165.62211446 118.83128713 -152.0546875 133.69921875 C-150.5415793 135.35923328 -150.5415793 135.35923328 -147.6875 137.109375 C-141.86094235 136.88856414 -137.72608494 134.91268926 -132.8125 132.046875 C-132.10778564 131.63912842 -131.40307129 131.23138184 -130.67700195 130.8112793 C-120.22308337 124.61025141 -113.40794788 116.55707256 -106.15087891 107.01220703 C-103.67522636 103.79311528 -101.11331775 100.64396139 -98.5625 97.484375 C-94.80107631 92.79553536 -91.07445489 88.0831135 -87.4375 83.296875 C-86.71046875 82.34167969 -85.9834375 81.38648437 -85.234375 80.40234375 C-83.50108182 78.29403613 -83.50108182 78.29403613 -83.6875 76.109375 C-86.51255524 76.109375 -89.19001568 76.76094727 -91.95825195 77.27758789 Z M-278.6875 151.109375 C-279.48800781 151.8415625 -280.28851563 152.57375 -281.11328125 153.328125 C-294.30688103 165.92302361 -303.56934706 182.67679318 -304.6875 201.109375 C-304.74035156 201.955 -304.79320312 202.800625 -304.84765625 203.671875 C-305.42467042 222.13632859 -300.26055021 243.94589429 -287.5625 257.859375 C-285.03853307 260.34063193 -285.03853307 260.34063193 -282.734375 260.01171875 C-280.00513874 258.80856307 -278.87626186 257.28748356 -277.0625 254.921875 C-276.36769531 254.01953125 -275.67289063 253.1171875 -274.95703125 252.1875 C-272.07520328 248.27892782 -269.26833276 244.32034472 -266.46582031 240.35473633 C-262.46028106 234.71937275 -258.14670325 229.39272143 -253.6875 224.109375 C-252.86507812 223.10132813 -252.04265625 222.09328125 -251.1953125 221.0546875 C-244.89545707 213.41638448 -238.10441281 206.31696613 -231.125 199.296875 C-229.83190918 197.99000732 -229.83190918 197.99000732 -228.51269531 196.65673828 C-222.54535901 190.71764571 -216.26554283 185.35660355 -209.6875 180.109375 C-208.35915882 179.01252124 -207.03332819 177.91261428 -205.7109375 176.80859375 C-198.12909411 170.53350816 -190.40063832 164.61973745 -182.27099609 159.06713867 C-178.74959279 156.64791518 -175.5875512 154.28597747 -172.6875 151.109375 C-206.10919502 126.78252176 -246.48863204 121.21408265 -278.6875 151.109375 Z M-331.6875 230.109375 C-348.13971863 248.05724987 -349.24895806 271.48845504 -351.25 294.546875 C-354.77080868 334.31421938 -354.77080868 334.31421938 -359.5625 349.734375 C-359.81789551 350.60280029 -360.07329102 351.47122559 -360.33642578 352.3659668 C-361.55329727 356.48486957 -362.83285987 360.57677631 -364.1875 364.65234375 C-368.29642811 377.22776654 -370.50241565 389.73749657 -364.49609375 402.2265625 C-358.12955858 412.37451704 -349.08863318 421.03227074 -337.6875 425.109375 C-335.01988236 425.36062326 -335.01988236 425.36062326 -332.6875 425.109375 C-330.87699987 423.29887487 -331.16870933 420.48319848 -330.890625 418.03125 C-330.73948242 416.73993164 -330.58833984 415.44861328 -330.43261719 414.11816406 C-330.3524939 413.42501099 -330.27237061 412.73185791 -330.18981934 412.0177002 C-325.60489744 372.79854006 -317.57678474 333.86084115 -300.78125 297.84375 C-298.62381269 292.46895728 -298.62381269 292.46895728 -299.5859375 286.9765625 C-300.07320313 286.31914062 -300.56046875 285.66171875 -301.0625 284.984375 C-301.89587891 283.83001953 -301.89587891 283.83001953 -302.74609375 282.65234375 C-304.11243224 280.86263277 -305.47970508 279.0736349 -306.84765625 277.28515625 C-318.10803556 262.50952988 -324.54751059 247.48193328 -330.6875 230.109375 C-331.0175 230.109375 -331.3475 230.109375 -331.6875 230.109375 Z M341.3125 231.109375 C341.1172876 231.6262085 340.9220752 232.14304199 340.72094727 232.67553711 C333.78160121 250.89811097 326.12212811 267.44354813 313.37890625 282.375 C312.82074219 283.05046875 312.26257813 283.7259375 311.6875 284.421875 C310.95660156 285.25138672 310.95660156 285.25138672 310.2109375 286.09765625 C308.39374563 290.16658587 309.8591418 293.87978605 311.32275391 297.84936523 C312.65726186 301.14019396 314.04203772 304.40644265 315.4375 307.671875 C320.42394747 319.64918158 324.78125372 331.62605085 328.3125 344.109375 C328.57369629 345.03186035 328.83489258 345.9543457 329.10400391 346.90478516 C335.26842111 369.1218169 338.87725768 391.9314518 341.32495117 414.83789062 C341.42783447 415.75634766 341.53071777 416.67480469 341.63671875 417.62109375 C341.72010498 418.41990967 341.80349121 419.21872559 341.8894043 420.04174805 C342.23785697 422.40543101 342.23785697 422.40543101 344.3125 425.109375 C355.29975426 424.01064957 363.15677297 417.06494228 370.17578125 408.95703125 C371.65627615 407.04304157 373.03611222 405.16511482 374.3125 403.109375 C374.84359375 402.28824219 375.3746875 401.46710938 375.921875 400.62109375 C382.18675438 384.80051353 376.9976688 366.23659242 371.1340332 351.078125 C364.02563172 332.5261418 363.33376646 312.48695219 361.58569336 292.86132812 C359.32277906 259.46172305 359.32277906 259.46172305 343.3125 231.109375 C342.6525 231.109375 341.9925 231.109375 341.3125 231.109375 Z " fill="#001D45" transform="translate(394.6875,11.890625)"/>
<path d="M0 0 C1.05123047 -0.020625 2.10246094 -0.04125 3.18554688 -0.0625 C13.63194129 -0.11450445 21.58154884 2.05548219 29.3125 9.25 C37.69678217 17.87383308 41.32496958 29.12659653 41.5625 41.0625 C41.34251048 54.46186151 33.16206576 64.89258671 23.9296875 73.93554688 C23.06601562 74.76119141 22.20234375 75.58683594 21.3125 76.4375 C19.58096763 78.11605265 17.85176095 79.79700804 16.125 81.48046875 C15.36832031 82.20645264 14.61164063 82.93243652 13.83203125 83.68041992 C11.831645 85.72054253 9.97130378 87.78098848 8.11238766 89.94530392 C4.55645583 94.02241285 0.82567536 97.87709044 -3.00523376 101.69471741 C-3.70794122 102.39898485 -4.41064867 103.1032523 -5.13465029 103.82886118 C-7.46883528 106.16700622 -9.8065439 108.50159462 -12.14428711 110.83618164 C-13.82710619 112.52035698 -15.50971272 114.20474471 -17.19212341 115.889328 C-21.7476168 120.44936899 -26.30625422 125.00625458 -30.86560893 129.56243443 C-33.71635813 132.4114016 -36.56604504 135.26142963 -39.4154377 138.11175346 C-39.88954162 138.58601062 -40.36364554 139.06026777 -40.85211625 139.54889635 C-41.81546588 140.51256574 -42.77881328 141.47623736 -43.74215848 142.43991118 C-52.75999709 151.46059632 -61.7808893 160.47822275 -70.80284131 169.49479365 C-78.53167483 177.21915988 -86.25788287 184.94614408 -93.98217773 192.67504883 C-102.96810892 201.66634039 -111.95567149 210.65599611 -120.9458161 219.64307493 C-121.905795 220.6027353 -122.86577182 221.56239775 -123.82574654 222.5220623 C-124.29798289 222.99414438 -124.77021925 223.46622646 -125.25676579 223.95261406 C-128.57273864 227.26772614 -131.88753012 230.58401589 -135.20191765 233.90071297 C-139.66889896 238.37058965 -144.13833238 242.83800008 -148.60964394 247.303545 C-150.24712998 248.93971238 -151.88377232 250.57672467 -153.5194931 252.21465683 C-155.75827751 254.45618796 -158.00014246 256.69459367 -160.24278259 258.93226624 C-160.88394813 259.57566249 -161.52511367 260.21905875 -162.18570846 260.88195187 C-165.97842167 264.6584713 -169.88839907 268.24334219 -173.94829279 271.73151582 C-176.23153619 273.72499248 -178.34995445 275.84964913 -180.45703125 278.02734375 C-181.28396484 278.87103516 -182.11089844 279.71472656 -182.96289062 280.58398438 C-184.64664103 282.31180523 -186.32637501 284.04354968 -188.00195312 285.77929688 C-198.33138132 296.28502252 -208.84803552 305.25421297 -224.0625 305.75 C-236.04708705 305.38719716 -245.05400591 301.69279816 -253.58984375 293.40234375 C-261.69131961 284.78703222 -264.6875 274.61641536 -264.6875 262.875 C-264.07498642 251.84975564 -261.870169 245.95237597 -254.234375 237.9375 C-252.21481742 235.80643311 -250.27517192 233.64933886 -248.3515625 231.43359375 C-244.75987007 227.307975 -241.06285343 223.293965 -237.3125 219.3125 C-236.63131104 218.58812744 -235.95012207 217.86375488 -235.24829102 217.11743164 C-229.46439147 211.00140434 -223.54049077 205.03390464 -217.53564453 199.13500977 C-216.87290527 198.48072998 -216.21016602 197.8264502 -215.52734375 197.15234375 C-214.95363037 196.59023193 -214.37991699 196.02812012 -213.78881836 195.44897461 C-211.95319535 193.52804322 -210.22090397 191.56396761 -208.4874258 189.55175877 C-205.05887912 185.6259248 -201.47872431 181.9005303 -197.78736877 178.22288513 C-197.1295804 177.56353676 -196.47179202 176.9041884 -195.79407066 176.22485977 C-193.6118981 174.03873129 -191.42620805 171.85615569 -189.24047852 169.67358398 C-187.66603253 168.09778156 -186.09179905 166.52176678 -184.51776123 164.94555664 C-180.25771174 160.68096174 -175.99452126 156.41952 -171.73061109 152.15878558 C-167.26055223 147.69126528 -162.79294148 143.22129788 -158.32493591 138.75172424 C-150.3424837 130.76733842 -142.35751767 122.78547255 -134.37155288 114.80460054 C-127.14301889 107.58053379 -119.91711063 100.35384934 -112.69311523 93.12524414 C-104.28729946 84.71406687 -95.87979373 76.30458442 -87.46982139 67.89756256 C-83.02415497 63.45345207 -78.57915959 59.00867605 -74.1359272 54.56213188 C-69.95785949 50.38116742 -65.77733753 46.20267233 -61.59494019 42.02603912 C-60.0638833 40.49630016 -58.53366871 38.96571763 -57.00437737 37.43421364 C-54.9101029 35.33718952 -52.8127447 33.24329697 -50.71461487 31.15013123 C-49.81706721 30.24923748 -49.81706721 30.24923748 -48.90138727 29.33014387 C-45.22088251 25.66640568 -41.41370498 22.20339392 -37.47083324 18.82324368 C-34.90535521 16.55999753 -32.60202867 14.1094869 -30.25 11.625 C-20.73623822 2.00552976 -13.12349122 0.06320766 0 0 Z M-17.5625 39.4375 C-18.20960938 40.05044922 -18.85671875 40.66339844 -19.5234375 41.29492188 C-27.90154864 49.30117845 -36.04542406 57.55569257 -44.19482422 65.79370117 C-44.76111542 66.36432785 -45.32740662 66.93495453 -45.91085815 67.52287292 C-46.96723804 68.58755808 -48.02157968 69.65427196 -49.07327271 70.72358704 C-51.74819579 73.41628122 -54.49204889 75.96888857 -57.37449646 78.4389801 C-61.70192676 82.21195434 -65.77571147 86.19723495 -69.82836914 90.26147461 C-70.59857895 91.0299321 -71.36878876 91.79838959 -72.16233826 92.59013367 C-74.68494999 95.1083764 -77.20392393 97.6302213 -79.72265625 100.15234375 C-81.48792678 101.91693982 -83.25334567 103.68138749 -85.01890564 105.44569397 C-89.18078261 109.60591297 -93.34008485 113.76869396 -97.49846691 117.93240601 C-100.8031982 121.24089149 -104.11046358 124.54682801 -107.41918945 127.85131836 C-112.00189713 132.42821181 -116.5821321 137.00756365 -121.16030693 141.58899117 C-122.89820521 143.3275537 -124.63683881 145.06538152 -126.37623787 146.80244255 C-128.81193677 149.23558514 -131.24437877 151.67193934 -133.67602539 154.10913086 C-134.38634918 154.81743042 -135.09667297 155.52572998 -135.82852173 156.25549316 C-139.70413124 160.14738492 -143.37757135 164.14788007 -146.96660519 168.30437565 C-149.80890785 171.51785112 -152.84360169 174.52881904 -155.88867188 177.54882812 C-156.57095352 178.22964951 -157.25323517 178.91047089 -157.95619202 179.61192322 C-159.4238622 181.07581604 -160.89268542 182.53855359 -162.36256409 184.00022888 C-164.69460692 186.31939513 -167.02341268 188.64176959 -169.35144043 190.96496582 C-175.13137326 196.73159768 -180.91675557 202.49275234 -186.70196533 208.25408936 C-191.60061456 213.1329451 -196.49716827 218.01388608 -201.39100647 222.89756775 C-203.67491518 225.17503874 -205.96183646 227.44945406 -208.24890137 229.72375488 C-209.66152632 231.13274414 -211.07400929 232.54187578 -212.48632812 233.95117188 C-213.11406631 234.57374374 -213.7418045 235.19631561 -214.38856506 235.8377533 C-218.10863188 239.55738077 -221.62701491 243.39543367 -225.04320526 247.396492 C-226.76319541 249.33532658 -228.57284675 251.13823501 -230.4375 252.9375 C-234.18435632 256.66751651 -236.48197327 259.33175054 -237.0625 264.75 C-236.65262871 268.5754654 -236.09647521 270.27893058 -233.6875 273.25 C-229.1354353 276.90523595 -229.1354353 276.90523595 -223.6875 278.25 C-218.42065126 275.92043229 -214.89056536 272.71920154 -210.97265625 268.54296875 C-209.1345513 266.69857968 -207.2895479 265.04385129 -205.30859375 263.36328125 C-198.76096884 257.68786399 -192.77720924 251.40638489 -186.6875 245.25 C-184.23219227 242.76780934 -181.77339153 240.28915358 -179.3125 237.8125 C-178.49338135 236.98093384 -178.49338135 236.98093384 -177.65771484 236.13256836 C-174.842276 233.2997188 -171.96685507 230.59693691 -168.93536282 227.99560928 C-164.92322794 224.49910485 -161.12756974 220.83304618 -157.37013245 217.06634521 C-156.33422396 216.03383507 -156.33422396 216.03383507 -155.27738804 214.98046613 C-152.98537615 212.69473729 -150.69690516 210.40549758 -148.40844727 208.11621094 C-146.75706502 206.46782372 -145.1054788 204.81964082 -143.45370483 203.17164612 C-138.98227253 198.70902256 -134.51406537 194.24318344 -130.04671597 189.77647305 C-127.2517601 186.9822294 -124.45609276 184.18869964 -121.6601696 181.39542389 C-112.39871116 172.14273191 -103.13931168 162.88798697 -93.88261116 153.63053498 C-93.38469665 153.1325805 -92.88678213 152.63462603 -92.3737793 152.12158203 C-91.87525021 151.62301206 -91.37672112 151.12444209 -90.86308508 150.61076394 C-82.7873576 142.53463018 -74.70665476 134.46349512 -66.62367714 126.39461824 C-58.30382017 118.08915967 -49.98773312 109.77994252 -41.67550319 101.46685052 C-37.01687343 96.80796645 -32.35672254 92.15062993 -27.69265938 87.49718475 C-23.30430793 83.11855188 -18.9208336 78.7350934 -14.54096603 74.34797478 C-12.93876691 72.74473452 -11.33488057 71.1431782 -9.72912788 69.54349709 C5.64801547 56.26810413 5.64801547 56.26810413 14.3125 39.25 C12.67699455 34.07089941 10.83030084 31.26186723 6.3125 28.25 C-2.66332398 23.76208801 -11.51894503 33.62793223 -17.5625 39.4375 Z " fill="#001D45" transform="translate(511.6875,299.75)"/>
<path d="M0 0 C8.65769789 8.42986373 11.36491103 16.23673113 11.59790039 27.97070312 C11.60684326 28.76412109 11.61578613 29.55753906 11.625 30.375 C11.6345874 31.13103516 11.6441748 31.88707031 11.65405273 32.66601562 C11.52590806 54.08248511 -9.17088156 69.01052973 -23.375 83.0625 C-25.91449078 85.57509075 -28.4504167 88.09120617 -30.984375 90.609375 C-31.548078 91.16477966 -32.11178101 91.72018433 -32.69256592 92.29241943 C-35.4785091 95.06146375 -38.13924911 97.88028755 -40.68598938 100.87150574 C-45.20598617 106.05692203 -50.0640716 110.89190083 -54.93139648 115.74829102 C-55.95412463 116.77237715 -56.97664057 117.79667524 -57.9989624 118.82116699 C-60.75493789 121.58166956 -63.51402885 124.33903779 -66.27385974 127.09568524 C-69.17439935 129.99367669 -72.07247967 132.89412592 -74.97096252 135.79417419 C-79.83700007 140.66202629 -84.70513129 145.5277771 -89.57446289 150.39233398 C-95.18798163 156.00041149 -100.79788909 161.61208211 -106.40593475 167.22563225 C-111.23828313 172.06253212 -116.07259441 176.89746364 -120.9085241 181.73078293 C-123.78923094 184.60993819 -126.66927565 187.48974708 -129.54754448 190.3713398 C-132.25477758 193.0814813 -134.964483 195.78912725 -137.67604065 198.49494171 C-138.66527514 199.48286443 -139.65367921 200.47161954 -140.64114571 201.46130943 C-145.61929031 206.44962044 -150.63024006 211.3262218 -155.99659824 215.89753628 C-158.2391243 217.84612974 -160.26863878 219.97105649 -162.3125 222.125 C-171.20603787 231.10088544 -181.23363682 240.62372144 -194.48876953 240.72998047 C-195.29685059 240.71596191 -196.10493164 240.70194336 -196.9375 240.6875 C-197.77909668 240.67734863 -198.62069336 240.66719727 -199.48779297 240.65673828 C-212.08174389 240.34243771 -221.1879568 236.2163659 -229.9375 227.0625 C-236.74875101 219.69435425 -238.27194079 210.94508182 -238.0625 201.25 C-238.06958984 200.32123047 -238.07667969 199.39246094 -238.08398438 198.43554688 C-237.99621955 188.81517187 -236.0220432 181.8078573 -229.125 175 C-228.04112573 173.88073191 -226.95780426 172.76092828 -225.875 171.640625 C-225.32972656 171.08568359 -224.78445313 170.53074219 -224.22265625 169.95898438 C-221.78855691 167.45049324 -219.46365836 164.84703826 -217.125 162.25 C-212.4333381 157.09070513 -207.53208185 152.17191153 -202.546875 147.296875 C-200.3862511 145.1421296 -198.37967516 142.89728714 -196.39355469 140.58105469 C-192.88895401 136.55959793 -189.20212567 132.77631998 -185.40625 129.03125 C-184.74467896 128.37346558 -184.08310791 127.71568115 -183.40148926 127.03796387 C-180.60921856 124.26183442 -177.81094584 121.49178463 -175.01318359 118.72119141 C-172.95459102 116.6808292 -170.89912097 114.63735669 -168.84375 112.59375 C-168.22375122 111.98204956 -167.60375244 111.37034912 -166.96496582 110.7401123 C-163.96669815 107.7584197 -161.08464011 104.72965952 -158.33055115 101.52003479 C-154.96135219 97.65162348 -151.43946867 93.98508494 -147.80688477 90.36499023 C-147.16522369 89.72157684 -146.52356262 89.07816345 -145.86245728 88.41525269 C-143.76626065 86.31469842 -141.66647898 84.21777224 -139.56640625 82.12109375 C-138.09327355 80.64728626 -136.62028923 79.17333046 -135.14744568 77.69923401 C-132.07021509 74.62053469 -128.99119756 71.54363689 -125.91088867 68.46801758 C-121.97931328 64.54213894 -118.05224506 60.6117873 -114.12651157 56.68006802 C-111.08872259 53.63865113 -108.0485381 50.59963774 -105.00764275 47.56132698 C-103.55935382 46.11370115 -102.11179632 44.66534315 -100.66501045 43.21621513 C-98.63659901 41.18524039 -96.60496854 39.15753866 -94.57250977 37.13061523 C-93.98576981 36.54185104 -93.39902985 35.95308685 -92.79450989 35.34648132 C-89.10941748 31.67979269 -85.29408141 28.21242236 -81.35479355 24.82010555 C-79.31318203 23.04073433 -77.39797352 21.16927074 -75.51171875 19.2265625 C-74.82674316 18.52764893 -74.14176758 17.82873535 -73.43603516 17.10864258 C-72.73526855 16.39216553 -72.03450195 15.67568848 -71.3125 14.9375 C-49.47907643 -7.07372018 -28.43583721 -18.28018106 0 0 Z M-43.14038086 27.21118164 C-43.81408942 27.8472915 -44.48779799 28.48340136 -45.18192196 29.13878727 C-57.09142727 40.47713697 -68.64650941 52.18872782 -80.26756406 63.82073855 C-83.84482711 67.4005651 -87.42456532 70.97791533 -91.00389099 74.55567932 C-97.00089009 80.55087011 -102.99580218 86.5481417 -108.98950195 92.54663086 C-115.90194992 99.46453879 -122.81801948 106.37881041 -129.73594147 113.29124397 C-135.70674817 119.25750494 -141.6755945 125.22572187 -147.64282173 131.1955629 C-151.19367148 134.74796484 -154.74517732 138.29970378 -158.29846382 141.8496685 C-161.63249632 145.18080031 -164.96405007 148.51439193 -168.29375267 151.84985161 C-169.51066373 153.06807766 -170.72841304 154.28546707 -171.94709015 155.50192642 C-177.56962429 161.11517519 -183.16255647 166.71339615 -188.30849838 172.77536011 C-190.06065181 174.82116461 -191.94692786 176.69921628 -193.88671875 178.56640625 C-194.61310547 179.27603516 -195.33949219 179.98566406 -196.08789062 180.71679688 C-197.57895762 182.1633544 -199.07379881 183.6060311 -200.57226562 185.04492188 C-205.47469647 189.85114087 -210.07289234 194.36887385 -211.0625 201.4375 C-210.33017655 206.24991124 -208.52894089 208.53182378 -204.875 211.6875 C-200.69111104 213.77944448 -199.0691322 213.76833641 -194.625 212.3125 C-189.19526278 208.54061288 -184.68019767 203.44631914 -180.09375 198.71875 C-178.21876986 196.89123772 -176.34547348 195.2187718 -174.35144043 193.53277588 C-167.78099697 187.79665572 -161.69985405 181.54376207 -155.53320312 175.38183594 C-154.11663956 173.96990764 -152.69988114 172.55817482 -151.28294373 171.1466217 C-147.45196476 167.32869703 -143.62426706 163.50749985 -139.79758263 159.68527126 C-137.40253448 157.29316404 -135.00690466 154.90164082 -132.61109924 152.51029205 C-125.10274481 145.01559175 -117.59638122 137.51890602 -110.09291601 130.01931071 C-101.45388097 121.38475689 -92.80834617 112.75678192 -84.15708399 104.13447928 C-77.45344136 97.45249365 -70.75561395 90.76471501 -64.06212378 84.0725596 C-60.07159027 80.08307086 -56.07869716 76.0960163 -52.07972717 72.1149826 C-48.31707425 68.36888079 -44.56173645 64.61559394 -40.81172371 60.85684013 C-39.44057783 59.48492775 -38.06690145 58.11553864 -36.69041252 56.7489872 C-23.24333799 44.74074367 -23.24333799 44.74074367 -15.625 29.3125 C-17.26420044 24.2127653 -18.96992093 21.06322854 -23.625 18.3125 C-32.33152315 15.77969326 -37.22854764 21.59862415 -43.14038086 27.21118164 Z " fill="#001D45" transform="translate(606.625,429.6875)"/>
<path d="M0 0 C5.9967055 5.7746053 11.21832084 12.69814043 11.78613281 21.23510742 C11.83186408 24.15685688 11.86026993 27.07792266 11.875 30 C11.9059375 31.50530273 11.9059375 31.50530273 11.9375 33.04101562 C12.031421 51.08558794 1.04613371 60.46884369 -10.9296875 72.6328125 C-13.24135677 74.95570077 -15.56022233 77.27104526 -17.88378906 79.58203125 C-20.27388 81.96127159 -22.65292528 84.35119138 -25.03125 86.7421875 C-26.55925395 88.26887188 -28.08787709 89.79493683 -29.6171875 91.3203125 C-30.32245575 92.02962921 -31.027724 92.73894592 -31.75436401 93.46975708 C-40.5991226 102.23064607 -40.5991226 102.23064607 -47.8125 102.3125 C-51.52061016 102.20755349 -53.98369957 101.93129246 -56.9375 99.625 C-60.04604499 96.03821732 -61.09152117 93.63486392 -61.8125 89 C-60.13489386 76.77744099 -44.90909376 65.28142472 -36.609375 57.07421875 C-34.00908546 54.44210748 -31.57607979 51.70516114 -29.171875 48.89453125 C-26.27791904 45.54131706 -23.2776753 42.28410786 -20.29296875 39.01171875 C-17.00131945 35.23738361 -15.9242059 32.88264224 -16.0546875 27.8125 C-16.56543112 24.62346665 -18.07178676 22.98775695 -20.375 20.8125 C-23.6642107 18.51005251 -26.42623761 18.20499809 -30.375 18.8125 C-36.38962711 21.9951278 -41.12436778 27.3921555 -45.81103516 32.23339844 C-48.43745025 34.93734937 -51.12259663 37.48588802 -53.9921875 39.93188477 C-58.7527441 44.07798212 -63.18565487 48.51509364 -67.625 53 C-68.48254883 53.86133545 -69.34009766 54.7226709 -70.22363281 55.61010742 C-72.94320889 58.3418112 -75.659512 61.07673275 -78.375 63.8125 C-81.95538026 67.41961851 -85.53915181 71.02331802 -89.125 74.625 C-90.33784668 75.85029419 -90.33784668 75.85029419 -91.57519531 77.1003418 C-92.34959961 77.87804932 -93.12400391 78.65575684 -93.921875 79.45703125 C-94.59057617 80.13096924 -95.25927734 80.80490723 -95.94824219 81.49926758 C-97.92654709 83.38502603 -99.93559899 85.17140264 -102.00561523 86.95303345 C-107.12028667 91.40190682 -111.91929256 96.15482633 -116.73828125 100.91943359 C-117.75409437 101.92076311 -118.77004372 102.92195444 -119.78611755 103.92301941 C-128.98748383 112.99508202 -138.15781521 122.09874507 -147.32064819 131.20970726 C-154.08383903 137.93389408 -160.86143338 144.64284965 -167.65839291 151.33290422 C-172.45125715 156.05291733 -177.22679881 160.79002604 -181.9899683 165.54000151 C-184.83029799 168.37147774 -187.67776863 171.19478127 -190.54434204 173.99970627 C-193.23672604 176.63481818 -195.90701198 179.2904645 -198.56199837 181.96323586 C-199.53779854 182.93815862 -200.5213023 183.90544247 -201.51299858 184.86419106 C-207.88398526 190.75783785 -207.88398526 190.75783785 -210.02441406 198.78848267 C-209.47234797 204.2432356 -207.22252052 207.31706271 -203.0625 210.75 C-201.44499883 212.19142814 -201.44499883 212.19142814 -199.375 212.8125 C-194.25336939 211.83428951 -191.12300604 209.17593032 -187.5 205.625 C-186.5245062 204.69289069 -185.54792216 203.76192118 -184.5703125 202.83203125 C-184.06209961 202.34492676 -183.55388672 201.85782227 -183.03027344 201.35595703 C-181.23421143 199.68122193 -179.38568226 198.08119315 -177.5234375 196.48046875 C-173.09299299 192.6305907 -168.98588939 188.49826898 -164.875 184.3125 C-163.45049444 182.86204716 -162.02342536 181.41410735 -160.59375 179.96875 C-159.97435547 179.33775391 -159.35496094 178.70675781 -158.71679688 178.05664062 C-156.75674808 176.17832864 -154.76044963 174.40915286 -152.703125 172.640625 C-147.88101904 168.44747725 -143.40050224 163.94541206 -138.90625 159.40625 C-138.02650513 158.52271851 -137.14676025 157.63918701 -136.24035645 156.72888184 C-133.44945494 153.92584867 -130.66170768 151.11970084 -127.875 148.3125 C-124.20101262 144.6114945 -120.52334398 140.91418178 -116.84375 137.21875 C-116.01331177 136.38001343 -115.18287354 135.54127686 -114.32727051 134.67712402 C-109.510463 129.84028821 -104.56844608 125.24133495 -99.375 120.8125 C-98.15683594 119.73355469 -98.15683594 119.73355469 -96.9140625 118.6328125 C-96.28242188 118.07335937 -95.65078125 117.51390625 -95 116.9375 C-94.35289062 116.36257813 -93.70578125 115.78765625 -93.0390625 115.1953125 C-89.34915194 112.1290488 -85.77899878 112.4848257 -81.14453125 112.52734375 C-77.30775217 112.92238588 -75.18634318 114.21741399 -72.375 116.8125 C-69.78423244 120.22760269 -70.01566587 123.64422404 -70.375 127.8125 C-72.55326362 133.26643155 -75.96476582 136.94013988 -79.97680664 141.09350586 C-80.96798162 142.13431132 -80.96798162 142.13431132 -81.97918034 143.19614315 C-89.7826784 151.35310643 -97.75833023 159.34060743 -105.74609375 167.31640625 C-107.36473362 168.93572218 -108.98322523 170.55518632 -110.60157776 172.17478943 C-113.96055109 175.53522215 -117.3212883 178.89387754 -120.68334961 182.2512207 C-124.97567578 186.53781353 -129.26344531 190.82893196 -133.5499258 195.12136936 C-136.87764986 198.45271546 -140.20776225 201.78166591 -143.53859138 205.10990715 C-145.12085233 206.69150529 -146.70238264 208.27383475 -148.28314018 209.8569355 C-150.49029509 212.0666482 -152.700661 214.27310007 -154.91186523 216.47875977 C-155.551492 217.12041077 -156.19111877 217.76206177 -156.85012817 218.42315674 C-160.62000728 222.17566499 -164.50222219 225.74488747 -168.53337193 229.21559048 C-170.91357671 231.27950975 -173.22815484 233.40996578 -175.5390625 235.55078125 C-184.82231176 241.93054617 -201.71758225 240.46831349 -212.375 238.8125 C-221.49560637 236.12117353 -228.4952916 228.78777342 -233.375 220.8125 C-236.8741433 213.55451136 -237.55550598 206.27169655 -237.5625 198.3125 C-237.57474609 197.57902344 -237.58699219 196.84554687 -237.59960938 196.08984375 C-237.63524071 182.81123475 -228.86941118 175.05958053 -220.375 165.8125 C-219.12203125 164.4203125 -219.12203125 164.4203125 -217.84375 163 C-212.21098994 156.77083005 -206.41261755 150.75798289 -200.40942383 144.88378906 C-197.5688122 142.08664985 -194.85508475 139.245893 -192.26902771 136.21070862 C-187.96164016 131.26592698 -183.3519396 126.64935354 -178.71118164 122.01928711 C-177.75741828 121.06416545 -176.80386707 120.1088319 -175.85050964 119.15330505 C-173.28254257 116.58081468 -170.71146531 114.01145477 -168.13964391 111.4428184 C-165.4352938 108.74101845 -162.7334053 106.03675851 -160.03111267 103.332901 C-155.49462389 98.79459824 -150.95604304 94.25839571 -146.41625977 89.72338867 C-141.18446187 84.4970319 -135.95627589 79.26708272 -130.72995096 74.03525347 C-126.22456456 69.52531391 -121.71721339 65.01734496 -117.20824522 60.51098639 C-114.52315845 57.82745031 -111.83873198 55.14326307 -109.15608406 52.45728874 C-106.63270565 49.93099951 -104.10685118 47.40721123 -101.57914925 44.88524818 C-100.22171663 43.52974601 -98.8667128 42.17181291 -97.5118103 40.81378174 C-93.13491208 36.45183513 -88.69576323 32.23283054 -84.00043392 28.21419621 C-82.03436642 26.51875395 -80.19205013 24.72855337 -78.375 22.875 C-77.715 22.20726562 -77.055 21.53953125 -76.375 20.8515625 C-75.715 20.17867188 -75.055 19.50578125 -74.375 18.8125 C-67.06834269 11.36313454 -59.41077358 4.50111064 -51.25 -2 C-50.37794922 -2.71446289 -50.37794922 -2.71446289 -49.48828125 -3.44335938 C-35.0720768 -14.9085958 -13.41717726 -11.3144853 0 0 Z " fill="#001D45" transform="translate(419.375,243.1875)"/>
</svg>
