<?xml version="1.0" standalone="no"?>
<!DOCTYPE svg PUBLIC "-//W3C//DTD SVG 20010904//EN"
 "http://www.w3.org/TR/2001/REC-SVG-20010904/DTD/svg10.dtd">
<svg version="1.0" xmlns="http://www.w3.org/2000/svg"
 width="640.000000pt" height="640.000000pt" viewBox="0 0 640.000000 640.000000"
 preserveAspectRatio="xMidYMid meet">
<metadata>
Created by potrace 1.16, written by Peter Selinger 2001-2019
</metadata>
<g transform="translate(0.000000,640.000000) scale(0.100000,-0.100000)"
fill="#000000" stroke="none">
<path d="M3015 6336 c-68 -22 -99 -42 -184 -120 -86 -79 -206 -147 -415 -236
-112 -48 -174 -59 -480 -85 -390 -33 -484 -71 -686 -275 -89 -90 -99 -98 -160
-114 -303 -83 -512 -287 -606 -591 -33 -109 -33 -109 -112 -174 -84 -70 -146
-150 -192 -246 -51 -108 -65 -180 -90 -449 -25 -278 -34 -340 -66 -432 -23
-69 -24 -78 -24 -379 l0 -308 31 -48 c43 -67 137 -152 206 -185 32 -16 94 -38
138 -49 l80 -20 7 -90 c36 -444 189 -902 415 -1250 83 -126 191 -270 238 -315
35 -34 39 -35 124 -38 86 -4 89 -3 122 26 32 29 34 34 37 110 5 95 -4 117 -84
217 -288 359 -480 826 -535 1305 -32 279 24 680 137 990 51 138 172 379 251
500 352 536 881 913 1493 1064 373 92 691 93 1065 4 1067 -252 1861 -1212
1902 -2298 16 -444 -131 -954 -394 -1360 -86 -132 -177 -244 -303 -374 -410
-422 -956 -690 -1515 -745 -178 -17 -203 -18 -348 -9 -465 29 -958 221 -1357
529 -90 69 -113 79 -191 79 -71 0 -113 -19 -134 -60 -20 -39 -20 -161 0 -200
34 -66 352 -283 570 -390 295 -143 604 -233 900 -260 173 -16 614 -13 752 5
469 61 931 254 1302 543 97 76 304 278 416 407 250 289 476 754 559 1151 28
133 56 341 56 414 l0 46 76 17 c145 31 280 122 353 236 l31 48 0 310 c0 302
-1 312 -24 374 -31 85 -41 150 -66 429 -24 268 -39 345 -85 447 -43 93 -104
172 -202 260 -77 70 -79 73 -102 153 -30 104 -83 215 -110 229 -25 14 -186 14
-212 1 -60 -33 -65 -147 -14 -300 43 -126 52 -199 35 -281 -14 -64 -87 -220
-106 -226 -7 -2 -38 33 -70 79 -157 222 -412 478 -629 630 -41 28 -75 55 -75
59 0 15 92 62 177 91 119 41 171 39 324 -12 109 -37 132 -42 196 -38 64 3 76
7 100 31 25 25 28 35 32 112 2 68 0 91 -14 111 -21 32 -154 96 -247 119 -66
17 -70 20 -154 111 -86 94 -181 166 -268 203 -79 34 -154 50 -321 66 -513 50
-488 44 -762 180 -128 63 -162 85 -234 151 -47 43 -108 89 -139 103 -51 24
-66 26 -215 28 -110 2 -172 -2 -200 -11z m290 -379 c73 -74 377 -449 370 -456
-2 -2 -50 3 -107 10 -65 9 -201 14 -368 14 -167 0 -303 -5 -368 -14 -57 -7
-105 -12 -106 -10 -7 7 324 415 390 483 73 73 94 70 189 -27z m-965 -353 c0
-4 -43 -60 -96 -126 -91 -114 -141 -158 -214 -188 -28 -12 -32 -10 -68 22 -74
67 -220 152 -294 171 -23 6 -23 7 -3 21 56 39 204 68 455 90 192 16 220 18
220 10z m1970 -14 c219 -17 370 -48 425 -86 20 -14 20 -15 -3 -21 -74 -19
-220 -104 -294 -171 -36 -32 -40 -34 -68 -22 -73 30 -123 74 -214 188 -53 66
-96 123 -96 127 0 4 26 5 58 1 31 -3 118 -10 192 -16z m-2862 -394 c59 -16
166 -65 197 -90 20 -16 20 -17 -5 -34 -252 -174 -469 -383 -652 -627 -50 -66
-95 -120 -101 -120 -18 0 -75 116 -96 195 -36 131 -25 213 46 355 25 50 59 93
117 150 153 152 332 214 494 171z m-927 -941 c30 -72 123 -217 162 -253 l25
-24 -33 -71 c-48 -105 -132 -371 -160 -511 -14 -66 -33 -190 -42 -273 l-17
-153 -29 19 c-79 50 -167 175 -167 236 0 11 20 79 45 150 55 158 70 239 90
505 9 113 23 237 30 275 16 75 54 179 63 170 3 -3 18 -34 33 -70z m5419 18
c31 -81 47 -184 65 -406 20 -254 37 -345 86 -474 49 -129 54 -186 20 -252 -27
-51 -97 -129 -139 -153 l-29 -18 -7 78 c-25 279 -88 551 -187 802 l-51 128 44
54 c69 84 120 173 159 276 5 12 11 22 13 22 3 0 14 -26 26 -57z"/>
<path d="M2979 4564 c-65 -20 -211 -156 -804 -749 -529 -529 -730 -740 -752
-794 -11 -26 -14 -69 -11 -180 4 -165 14 -197 88 -271 72 -72 84 -75 275 -75
146 0 175 3 203 18 50 27 827 802 847 844 13 26 16 55 13 115 -3 73 -6 82 -31
104 -25 22 -37 24 -122 24 -92 0 -95 -1 -132 -32 -21 -18 -184 -177 -363 -353
-179 -176 -347 -338 -373 -359 l-48 -39 -22 22 -22 22 680 678 c374 373 692
686 708 696 22 14 30 15 42 5 8 -7 15 -18 15 -24 0 -6 -69 -83 -153 -171 -210
-221 -197 -201 -197 -306 0 -78 3 -91 24 -116 23 -26 30 -28 115 -31 77 -3 95
-1 123 16 35 22 267 252 337 335 74 87 76 94 76 263 0 148 -1 151 -30 209 -35
69 -101 124 -177 149 -64 20 -243 21 -309 0z"/>
<path d="M3927 4036 c-20 -7 -54 -27 -75 -42 -56 -43 -1115 -1098 -1518 -1512
-246 -253 -359 -377 -376 -410 -21 -42 -23 -61 -23 -182 0 -125 2 -139 26
-190 59 -127 148 -180 310 -188 129 -6 178 7 264 70 90 67 1796 1771 1864
1862 28 38 56 87 62 110 15 57 6 249 -15 307 -22 60 -75 122 -134 157 -45 26
-54 27 -197 30 -109 1 -160 -2 -188 -12z m208 -336 c19 -21 14 -26 -521 -561
-296 -298 -714 -712 -928 -921 l-388 -380 -21 20 -20 20 23 34 c28 40 1502
1520 1682 1689 70 65 133 119 141 119 8 0 22 -9 32 -20z"/>
<path d="M4488 3077 c-26 -8 -72 -33 -103 -56 -140 -106 -1434 -1414 -1464
-1480 -12 -28 -16 -69 -16 -186 0 -169 9 -199 84 -274 67 -67 119 -85 258 -89
180 -6 190 -1 371 168 182 171 1241 1235 1303 1310 26 30 51 70 58 89 17 52
14 293 -4 338 -27 65 -81 120 -153 155 -62 31 -75 33 -177 35 -67 2 -128 -2
-157 -10z m166 -339 c15 -24 -23 -64 -737 -776 -590 -589 -647 -643 -666 -632
-12 6 -21 15 -21 21 0 20 194 220 783 808 333 332 611 601 618 599 7 -2 17
-11 23 -20z"/>
</g>
</svg>
